<svg width="833" height="198" viewBox="0 0 833 198" fill="none" xmlns="http://www.w3.org/2000/svg">
<path d="M29.9531 148.431V7.70349C54.7041 7.70349 74.9489 25.7973 74.9489 47.9084V188.642C50.2045 188.642 29.9531 170.548 29.9531 148.431Z" fill="#3FA9F5"/>
<path fill-rule="evenodd" clip-rule="evenodd" d="M146.757 32.6272L146.445 49.4835L163.337 49.7879L163.635 32.925L146.757 32.6272Z" fill="#FCC604"/>
<path fill-rule="evenodd" clip-rule="evenodd" d="M154.265 6.90933L143.112 6.71741L142.907 17.849L154.066 18.0542L154.265 6.90933Z" fill="#FCC604"/>
<path fill-rule="evenodd" clip-rule="evenodd" d="M126.472 8.39835L134.888 8.55057L135.034 0.145598L126.625 0L126.472 8.39835Z" fill="#FCC604"/>
<path fill-rule="evenodd" clip-rule="evenodd" d="M16.885 165.373L17.1899 148.517L0.298205 148.206L0 165.075L16.885 165.373Z" fill="#FCC604"/>
<path fill-rule="evenodd" clip-rule="evenodd" d="M9.3703 191.091L20.5232 191.283L20.7286 180.151L9.5691 179.946L9.3703 191.091Z" fill="#FCC604"/>
<path fill-rule="evenodd" clip-rule="evenodd" d="M37.163 189.602L28.7536 189.449L28.6012 197.854L37.0106 198L37.163 189.602Z" fill="#FCC604"/>
<path d="M29.9531 148.431V7.70349C54.7041 7.70349 74.9489 25.7973 74.9489 47.9084C74.9489 98.1728 29.9531 107.359 29.9531 148.431Z" fill="#1B1464"/>
<path d="M135.239 47.9084V188.642C110.495 188.642 90.2435 170.548 90.2435 148.431V7.70349C114.995 7.70349 135.239 25.7973 135.239 47.9084Z" fill="#3FA9F5"/>
<path d="M135.239 47.9083V188.642C110.495 188.642 90.2435 170.548 90.2435 148.43C90.2435 98.1727 135.239 88.9868 135.239 47.9083Z" fill="#1B1464"/>
<path d="M187.187 129.913H182.343C180.964 129.913 180.268 129.569 180.268 128.073V68.3119C180.268 57.723 184.768 49.1989 199.062 49.1989H233.356C234.853 49.1989 235.198 49.8938 235.198 51.2703V55.3206C235.198 56.8229 234.853 57.306 233.356 57.306H199.175C192.144 57.306 189.148 60.529 189.148 67.0942V84.2483H220.957C222.455 84.2483 222.68 84.7115 222.68 86.2337V90.0325C222.68 91.4157 222.455 92.1039 220.957 92.1039H189.148V128.146C189.148 129.569 188.684 129.913 187.187 129.913Z" fill="#1B1464"/>
<path d="M282.261 128.417L276.151 110.687H241.884C240.963 112.871 236.695 126.346 235.774 128.417C235.66 128.872 235.388 129.271 235.008 129.545C234.627 129.819 234.161 129.949 233.694 129.913H227.126C225.854 129.913 225.509 128.993 225.854 128.073L252.487 53.1167C253.759 49.8937 254.475 49.1988 257.563 49.0863H260.559C264.137 49.0863 264.826 50.0062 265.86 53.1167L292.148 128.073C292.5 128.881 292.261 129.913 290.995 129.913H284.541C283.275 129.913 282.692 129.913 282.261 128.417ZM259.293 58.8745H258.716L253.176 75.916L244.303 102.746H273.587L264.972 76.3727L259.293 58.8745Z" fill="#1B1464"/>
<path d="M309.709 129.913H303.944C302.678 129.913 302.327 129.681 302.327 128.417V50.8137C302.327 49.5496 302.678 49.318 303.944 49.318H309.709C310.975 49.318 311.32 49.5496 311.32 50.8137V128.417C311.32 129.681 310.975 129.913 309.709 129.913Z" fill="#1B1464"/>
<path d="M380.874 103.778L387.68 128.186C388.025 128.993 387.793 129.913 386.414 129.913H380.073C379.661 129.983 379.239 129.89 378.895 129.654C378.551 129.418 378.312 129.058 378.23 128.649L372.001 106.313C369.231 96.8689 363.472 94.5658 355.746 94.5658H337.641V128.417C337.641 129.681 337.297 129.913 336.031 129.913H330.146C328.881 129.913 328.536 129.681 328.536 128.417V54.4933C328.536 50.9261 329.802 49.0863 333.957 49.0863H360.126C374.764 49.0863 383.982 58.5303 383.982 71.4224C383.982 80.6347 379.257 88.3514 370.49 91.4553V91.7995C376.958 93.99 379.151 97.9079 380.874 103.778ZM359.086 57.3788H337.754V86.7366H358.396C369.814 86.7366 374.884 80.6347 374.884 71.879C374.884 64.3939 370.497 57.3788 359.086 57.3788Z" fill="#1B1464"/>
<path d="M395.003 100.899V93.0437C395.003 91.773 395.235 91.2039 396.739 91.2039H423.485C424.87 91.2039 425.102 91.773 425.102 93.0437V100.873C425.102 102.137 424.87 102.719 423.485 102.719H396.739C395.235 102.746 395.003 102.163 395.003 100.899Z" fill="#1B1464"/>
<path d="M457.685 130.039H441.516C439.806 130.039 438.865 129.245 438.865 127.65V52.8653C438.865 51.277 439.773 50.4762 441.516 50.4762H457.685C460.303 50.4762 460.416 51.0454 460.416 52.8653V127.65C460.416 129.443 460.303 130.039 457.685 130.039Z" fill="#3FA9F5"/>
<path d="M538.42 90.1317L532.615 103.09L526.69 115.711C524.987 119.463 523.622 120.714 520.315 120.714H512.688C508.93 120.714 508.135 119.463 506.313 115.711L501.19 105.479L494.564 91.4951H493.901V127.895C493.901 130.059 493.238 130.059 491.396 130.059H475.571C473.861 130.059 472.92 130.059 472.92 127.895V59.4304C472.92 52.2697 475.313 50.4497 481.118 50.4497H489.885C494.776 50.4497 496.26 52.0447 498.195 56.0221L507.3 74.8969L516.18 93.5401H516.637L525.517 75.1219L534.622 56.3663C536.557 52.3954 538.267 50.4497 544.072 50.4497H551.13C556.027 50.4497 559.214 51.588 559.214 58.6363V127.875C559.214 130.039 558.552 130.039 556.564 130.039H541.534C539.824 130.039 539.029 130.039 539.029 127.875V90.1516L538.42 90.1317Z" fill="#3FA9F5"/>
<path d="M588.419 130.039H572.249C570.546 130.039 569.632 129.245 569.632 127.762V57.9678C569.632 53.8778 570.771 50.4629 577.034 50.4629H605.946C623.839 50.4629 633.726 61.4952 633.726 76.0484C633.726 83.3283 631.221 102.991 602.308 102.991H591.149V127.775C591.149 129.582 591.069 130.039 588.419 130.039ZM603.442 68.9869H591.149V86.1543H603.442C608.796 86.1543 611.526 81.9451 611.526 77.511C611.526 74.3277 610.161 68.9869 603.442 68.9869Z" fill="#3FA9F5"/>
<path d="M652.036 114.46L648.278 127.537C647.708 129.245 647.251 130.039 644.634 130.039H627.901C626.417 130.039 626.079 129.126 626.417 127.875L648.848 57.4979C650.783 51.4755 653.401 50.3372 658.523 50.3372H667.741C673.096 50.3372 675.826 50.6813 677.986 57.3854L700.411 127.875C700.749 128.675 700.749 130.039 698.927 130.039H681.737C679.921 130.039 678.669 129.807 678.212 128.106L674.454 114.46H652.036ZM669.796 97.6366L667.629 88.7684L663.964 72.3952H663.056L659.186 89.1059L656.794 97.6366H669.796Z" fill="#3FA9F5"/>
<path d="M756.487 107.981C758.767 107.074 759.449 107.074 760.463 109.688L765.36 119.92C766.388 122.19 766.388 123.229 764.698 124.129C755.586 129.582 746.706 131.29 736.806 131.29C709.941 131.29 699.921 113.778 699.921 90.2575C699.921 65.8169 715.162 49.3313 737.601 49.3313C746.368 49.3313 753.995 50.5755 760.715 54.3279C763.101 55.8104 763.22 56.0354 761.967 59.2187L757.991 68.5436C756.971 71.3828 756.401 71.7269 753.664 70.8136C747.634 69.0003 744.221 68.1995 738.641 68.1995C729.191 68.1995 722.704 75.8169 722.704 90.2575C722.704 104.473 727.144 112.097 738.867 112.097C746.58 112.077 751.59 109.801 756.487 107.981Z" fill="#3FA9F5"/>
<path d="M830.608 68.5568H811.138V127.676C811.138 129.496 811.026 130.065 808.408 130.065H792.245C790.535 130.065 789.628 129.271 789.628 127.676V68.5568H770.615C769.018 68.5568 768.223 67.6435 768.223 65.9426V53.183C768.223 50.5357 768.793 50.4497 770.615 50.4497H830.608C832.43 50.4497 833 50.5622 833 53.183V65.9096C833 67.617 832.205 68.5568 830.608 68.5568Z" fill="#3FA9F5"/>
<path d="M831.131 148.953H182.137C181.66 148.925 181.212 148.716 180.884 148.368C180.556 148.021 180.373 147.561 180.373 147.084C180.373 146.606 180.556 146.147 180.884 145.799C181.212 145.452 181.66 145.242 182.137 145.214H831.131C831.608 145.242 832.057 145.452 832.385 145.799C832.713 146.147 832.895 146.606 832.895 147.084C832.895 147.561 832.713 148.021 832.385 148.368C832.057 148.716 831.608 148.925 831.131 148.953Z" fill="#1B1464"/>
<path d="M195.669 183.672H186.173C181.534 183.672 180.255 180.78 180.255 177.716V166.365C180.255 163.275 181.885 160.409 186.173 160.409H195.45C196.014 160.409 196.113 160.641 196.113 161.17V163.268C196.113 163.831 196.014 163.996 195.45 163.996H186.623C184.927 163.996 184.324 164.764 184.324 166.187V169.681H194.37C194.94 169.681 195.033 169.847 195.033 170.475V172.302C195.033 172.831 194.933 173.07 194.37 173.07H184.324V177.914C184.324 179.344 185.026 180.078 186.623 180.078H195.669C196.299 180.078 196.371 180.244 196.371 180.872V182.931C196.371 183.407 196.232 183.672 195.669 183.672Z" fill="#1B1464"/>
<path d="M203.953 183.109C203.862 183.291 203.719 183.442 203.542 183.542C203.365 183.643 203.161 183.688 202.958 183.672H199.996C199.566 183.672 199.499 183.473 199.731 183.01L205.391 174.446L200.367 166.776C200.235 166.544 200.235 166.207 200.632 166.207H203.727C203.921 166.181 204.118 166.215 204.291 166.305C204.464 166.395 204.605 166.536 204.695 166.71L207.644 171.799L210.672 166.716C210.757 166.546 210.892 166.407 211.059 166.317C211.227 166.227 211.418 166.191 211.606 166.213H214.602C215.099 166.213 215.033 166.551 214.933 166.716L209.777 174.32L215.529 183.05C215.695 183.314 215.728 183.645 215.231 183.645H212.07C211.865 183.674 211.656 183.634 211.475 183.533C211.294 183.431 211.152 183.273 211.07 183.083L207.544 177.126L203.953 183.109Z" fill="#1B1464"/>
<path d="M222.985 190.416H220.334C219.903 190.416 219.671 190.35 219.671 189.853V167.927C219.671 167.524 219.771 167.358 220.201 167.127C222.444 166.229 224.844 165.793 227.259 165.843C233.018 165.843 235.344 169.814 235.344 174.916C235.344 179.866 232.779 183.983 227.557 183.983C226.218 183.99 224.883 183.834 223.581 183.52V189.833C223.614 190.33 223.482 190.416 222.985 190.416ZM226.709 169.185C225.661 169.2 224.62 169.358 223.614 169.655V180.244C224.675 180.545 225.772 180.701 226.875 180.707C229.433 180.707 231.334 179.244 231.334 174.929C231.334 170.614 229.565 169.185 226.709 169.185Z" fill="#1B1464"/>
<path d="M254.25 182.871C252.262 183.771 249.611 184.036 247.464 184.036C241.579 184.036 240.016 181.514 240.016 178.49C240.016 175.465 241.944 172.534 247.265 172.534H250.989V171.971C250.989 170.277 250.393 169.046 247.563 169.046C245.994 169.053 244.433 169.276 242.925 169.708C242.421 169.84 242.262 169.774 242.156 169.37L241.692 167.477C241.595 167.116 241.694 166.895 241.99 166.816C243.99 166.141 246.089 165.812 248.2 165.843C252.838 165.843 254.886 167.941 254.886 171.799V181.766C254.911 181.994 254.863 182.224 254.749 182.422C254.635 182.621 254.46 182.778 254.25 182.871ZM247.762 175.498C246.304 175.498 243.972 175.697 243.972 178.357C243.972 180.25 245.37 180.912 247.497 180.912C248.672 180.927 249.84 180.748 250.956 180.383V175.498H247.762Z" fill="#1B1464"/>
<path d="M264.733 169.35V183.109C264.733 183.606 264.601 183.672 264.071 183.672H261.48C261.042 183.672 260.817 183.606 260.817 183.109V168.887C260.817 167.292 261.221 166.432 263.05 166.127C263.945 166.028 266.277 165.829 267.404 165.829C273.295 165.829 275.919 168.192 275.919 174.334V183.109C275.919 183.606 275.787 183.672 275.257 183.672H272.606C272.175 183.672 271.943 183.606 271.943 183.109V174.268C271.943 170.813 270.943 169.152 267.218 169.152C266.386 169.135 265.553 169.201 264.733 169.35Z" fill="#1B1464"/>
<path d="M289.451 165.843C290.65 165.822 291.846 165.956 293.01 166.24V159.966C293.01 159.469 293.176 159.403 293.673 159.403H296.27C296.701 159.403 296.933 159.469 296.933 159.966V181.991C296.933 183.685 290.876 184.016 289.345 184.016C283.381 184.016 281.333 180.495 281.333 175.181C281.3 170.25 283.726 165.843 289.451 165.843ZM289.849 180.727C290.921 180.72 291.987 180.553 293.01 180.23V169.589C291.971 169.299 290.894 169.163 289.816 169.185C287.165 169.185 285.323 170.912 285.323 175.201C285.323 179.284 286.953 180.747 289.849 180.747V180.727Z" fill="#1B1464"/>
<path d="M305.548 164.069C305.073 164.069 304.609 163.928 304.214 163.665C303.82 163.401 303.512 163.027 303.331 162.589C303.149 162.15 303.102 161.668 303.195 161.204C303.289 160.739 303.518 160.312 303.854 159.977C304.19 159.642 304.618 159.415 305.084 159.323C305.55 159.231 306.032 159.28 306.47 159.462C306.909 159.644 307.283 159.952 307.546 160.347C307.808 160.742 307.948 161.206 307.947 161.68C307.948 161.995 307.888 162.307 307.768 162.598C307.647 162.889 307.471 163.153 307.248 163.376C307.024 163.598 306.759 163.774 306.467 163.893C306.176 164.012 305.863 164.072 305.548 164.069ZM306.78 183.672H304.216C303.785 183.672 303.553 183.606 303.553 183.109V166.796C303.553 166.299 303.752 166.227 304.216 166.227H306.78C307.277 166.227 307.443 166.299 307.443 166.796V183.109C307.443 183.606 307.277 183.672 306.78 183.672Z" fill="#1B1464"/>
<path d="M317.96 169.35V183.109C317.96 183.606 317.827 183.672 317.297 183.672H314.732C314.295 183.672 314.07 183.606 314.07 183.109V168.887C314.07 167.292 314.474 166.432 316.303 166.127C317.198 166.028 319.53 165.829 320.657 165.829C326.548 165.829 329.172 168.192 329.172 174.334V183.109C329.172 183.606 329.04 183.672 328.51 183.672H325.859C325.428 183.672 325.229 183.606 325.229 183.109V174.268C325.229 170.813 324.229 169.152 320.504 169.152C319.652 169.131 318.799 169.197 317.96 169.35Z" fill="#1B1464"/>
<path d="M341.346 191.144C340.981 191.21 340.743 191.078 340.683 190.78L340.352 188.258C340.338 188.196 340.338 188.133 340.351 188.071C340.365 188.009 340.391 187.951 340.429 187.9C340.466 187.849 340.514 187.807 340.57 187.777C340.625 187.746 340.686 187.727 340.749 187.722C344.063 187.193 346.21 186.326 346.21 183.506V183.308C344.868 183.695 343.478 183.896 342.081 183.903C336.859 183.903 334.5 180.283 334.5 175.101C334.5 169.807 337.091 165.896 342.916 165.896C345.212 165.821 347.499 166.218 349.636 167.06C350.066 167.292 350.166 167.491 350.166 167.855V182.077C350.192 188.126 347.164 190.33 341.346 191.144ZM342.777 180.555C343.957 180.537 345.131 180.371 346.269 180.058V169.589C345.239 169.306 344.177 169.159 343.108 169.152C340.345 169.152 338.516 170.714 338.516 174.936C338.516 178.821 340.113 180.581 342.777 180.581V180.555Z" fill="#1B1464"/>
<path d="M370.749 183.672H368.224C367.727 183.672 367.455 183.539 367.455 182.97V166.365C367.455 163.275 368.853 160.409 373.38 160.409H382.723C383.386 160.409 383.426 160.641 383.426 161.17V163.195C383.426 163.758 383.293 163.957 382.723 163.957H373.81C372.114 163.957 371.517 164.691 371.517 166.114V170.005H381.497C382.061 170.005 382.16 170.138 382.16 170.767V172.659C382.16 173.162 382.061 173.427 381.497 173.427H371.517V182.957C371.517 183.606 371.385 183.672 370.749 183.672Z" fill="#1B1464"/>
<path d="M390.781 178.589L389.317 183.109C389.184 183.506 388.979 183.672 388.449 183.672H385.387C384.89 183.672 384.791 183.341 384.923 182.97L392.107 161.945C392.544 160.681 392.975 160.35 394.241 160.35H395.665C397.031 160.35 397.461 160.648 397.899 161.945L405.115 182.97C405.248 183.341 405.181 183.672 404.684 183.672H401.623C401.126 183.672 400.861 183.639 400.688 183.142L399.231 178.589H390.781ZM398.164 175.108L396.434 169.529L395.036 164.81H394.87L393.505 169.443L391.775 175.108H398.164Z" fill="#1B1464"/>
<path d="M413.472 183.672H410.947C410.41 183.672 410.178 183.54 410.178 182.97V161.131C410.178 160.568 410.41 160.436 410.947 160.436H413.472C414.134 160.436 414.273 160.502 414.273 161.131V182.97C414.3 183.606 414.134 183.672 413.472 183.672Z" fill="#1B1464"/>
<path d="M438.978 183.672H436.003C435.632 183.672 435.234 183.639 435.068 183.142L433.471 176.994C432.809 174.638 431.708 173.97 429.349 173.97H425.42V182.97C425.42 183.632 425.287 183.672 424.658 183.672H422.086C421.589 183.672 421.324 183.54 421.324 182.97V162.242C421.324 160.919 421.755 160.35 423.186 160.35H431.033C435.486 160.35 438.382 163.076 438.382 167.06C438.433 168.213 438.133 169.354 437.521 170.332C436.91 171.311 436.015 172.081 434.956 172.54V172.673C436.519 173.334 437.149 174.499 437.606 176.094L439.435 182.97C439.47 183.046 439.485 183.13 439.478 183.213C439.472 183.296 439.445 183.376 439.399 183.446C439.354 183.516 439.291 183.574 439.218 183.613C439.144 183.652 439.062 183.673 438.978 183.672ZM430.628 164.003H425.473V170.581H430.396C433.093 170.581 434.26 169.119 434.26 167.272C434.26 165.929 433.624 164.003 430.628 164.003Z" fill="#1B1464"/>
<path d="M462.569 160.019C465.066 160.015 467.541 160.489 469.859 161.415C470.223 161.647 470.29 161.746 470.124 162.176L469.329 164.44C469.163 164.936 469.057 164.903 468.666 164.804C466.67 164.091 464.57 163.709 462.45 163.672C460.151 163.672 459.137 164.771 459.137 166.061C459.137 167.656 460.634 168.556 464.226 169.953C468.017 171.548 471.41 173.01 471.41 177.232C471.41 181.865 467.752 184.009 463.06 184.009C460.263 184.009 457.036 183.579 454.412 182.15C454.114 182.017 454.047 181.753 454.213 181.349L455.207 179.092C455.23 179.02 455.269 178.954 455.32 178.899C455.372 178.843 455.435 178.8 455.505 178.771C455.575 178.743 455.651 178.73 455.726 178.734C455.802 178.738 455.876 178.759 455.943 178.794C458.03 179.738 460.28 180.268 462.569 180.356C465.929 180.356 467.208 179.033 467.208 177.332C467.208 175.472 465.817 174.612 462.622 173.361C457.798 171.501 455.002 169.807 455.002 166.319C455.048 162.64 457.513 160.019 462.569 160.019Z" fill="#1B1464"/>
<path d="M483.623 184.036C478.268 184.036 475.671 180.912 475.671 174.969C475.671 169.152 478.984 165.829 483.749 165.829C489.05 165.829 491.8 169.251 491.8 174.87C491.774 180.747 489.05 184.036 483.623 184.036ZM483.788 169.086C480.932 169.086 479.567 171.581 479.567 174.87C479.567 178.556 480.601 180.78 483.656 180.78C486.711 180.78 487.817 178.027 487.817 174.969C487.817 171.799 486.982 169.086 483.788 169.086Z" fill="#1B1464"/>
<path d="M504.02 183.606C503.044 183.926 502.018 184.071 500.991 184.036C498.493 184.036 497.4 183.043 497.4 180.151V159.953C497.4 159.456 497.599 159.383 498.029 159.383H500.68C501.177 159.383 501.343 159.456 501.343 159.953V179.218C501.343 180.383 501.575 180.714 502.476 180.714C502.84 180.714 503.37 180.647 503.669 180.614C503.967 180.581 504.172 180.614 504.205 181.011L504.437 182.871C504.517 183.308 504.451 183.374 504.02 183.606Z" fill="#1B1464"/>
<path d="M519.752 180.515V166.763C519.752 166.26 519.884 166.193 520.381 166.193H522.979C523.41 166.193 523.642 166.26 523.642 166.763V180.978C523.642 182.54 522.979 183.44 521.415 183.738C519.98 183.92 518.535 184.019 517.088 184.036C511.124 184.036 508.877 181.68 508.877 175.532V166.763C508.877 166.26 509.01 166.193 509.507 166.193H512.098C512.535 166.193 512.761 166.26 512.761 166.763V175.598C512.761 179.052 513.423 180.714 517.181 180.714C518.042 180.736 518.904 180.67 519.752 180.515Z" fill="#1B1464"/>
<path d="M539.844 183.539C538.537 183.911 537.18 184.079 535.822 184.036C532.197 184.036 530.832 182.507 530.832 179.317V169.185H528.466C527.969 169.185 527.936 168.986 527.936 168.622V167.259C527.936 166.862 528.035 166.73 528.466 166.63L530.998 166.061L531.428 162.911C531.528 162.408 531.66 162.309 532.164 162.143L534.092 161.481C534.457 161.382 534.689 161.515 534.689 162.011V166.227H538.247C538.744 166.227 538.784 166.465 538.784 166.763V168.622C538.784 169.019 538.744 169.185 538.247 169.185H534.689V178.821C534.689 180.25 535.351 180.68 536.716 180.68C537.553 180.648 538.387 180.571 539.215 180.449C539.645 180.35 539.745 180.449 539.778 180.78L540.143 182.904C540.176 183.176 540.242 183.374 539.844 183.539Z" fill="#1B1464"/>
<path d="M546.961 164.069C546.487 164.069 546.023 163.928 545.628 163.665C545.233 163.401 544.926 163.027 544.745 162.589C544.563 162.15 544.516 161.668 544.609 161.204C544.702 160.739 544.931 160.312 545.268 159.977C545.604 159.642 546.032 159.415 546.498 159.323C546.963 159.231 547.446 159.28 547.884 159.462C548.322 159.644 548.697 159.952 548.959 160.347C549.222 160.742 549.362 161.206 549.36 161.68C549.361 161.995 549.3 162.306 549.179 162.597C549.059 162.888 548.882 163.152 548.659 163.374C548.436 163.596 548.171 163.772 547.88 163.891C547.589 164.01 547.276 164.071 546.961 164.069ZM548.194 183.672H545.636C545.199 183.672 544.973 183.606 544.973 183.109V166.796C544.973 166.299 545.172 166.227 545.636 166.227H548.194C548.691 166.227 548.857 166.299 548.857 166.796V183.109C548.863 183.606 548.691 183.672 548.194 183.672Z" fill="#1B1464"/>
<path d="M562.833 184.036C557.478 184.036 554.847 180.912 554.847 174.969C554.847 169.152 558.161 165.829 562.932 165.829C568.233 165.829 570.984 169.251 570.984 174.87C570.984 180.747 568.253 184.036 562.833 184.036ZM562.998 169.086C560.136 169.086 558.77 171.581 558.77 174.87C558.77 178.556 559.804 180.78 562.866 180.78C565.927 180.78 567.021 178.027 567.021 174.969C567.021 171.799 566.192 169.086 562.998 169.086Z" fill="#1B1464"/>
<path d="M580.162 169.35V183.109C580.162 183.606 580.029 183.672 579.499 183.672H576.908C576.471 183.672 576.245 183.606 576.245 183.109V168.887C576.245 167.292 576.643 166.432 578.478 166.127C579.373 166.028 581.699 165.829 582.832 165.829C588.723 165.829 591.348 168.192 591.348 174.334V183.109C591.348 183.606 591.215 183.672 590.685 183.672H588.034C587.604 183.672 587.405 183.606 587.405 183.109V174.268C587.405 170.813 586.404 169.152 582.68 169.152C581.836 169.133 580.992 169.199 580.162 169.35Z" fill="#1B1464"/>
<path d="M603.448 184.036C601.288 184.036 598.558 183.639 596.696 182.573C596.364 182.408 596.298 182.143 596.464 181.779L597.265 179.919C597.497 179.516 597.63 179.383 598.127 179.622C599.781 180.366 601.568 180.771 603.382 180.813C605.251 180.813 606.178 180.019 606.178 178.827C606.178 177.504 604.979 176.968 602.587 176.068C598.995 174.744 597.166 173.513 597.166 170.819C597.166 167.934 599.293 165.803 603.382 165.803C605.262 165.792 607.127 166.143 608.876 166.835C609.24 167.001 609.273 167.266 609.174 167.63L608.405 169.529C608.273 169.893 608.107 169.893 607.742 169.761C606.345 169.208 604.852 168.936 603.349 168.96C601.719 168.96 600.99 169.794 600.99 170.621C600.99 171.819 601.884 172.348 604.383 173.268C607.212 174.327 610.002 175.492 610.002 178.781C610.002 182.388 607.179 184.036 603.448 184.036Z" fill="#1B1464"/>
<path d="M639.644 182.871C637.656 183.771 635.005 184.036 632.858 184.036C626.973 184.036 625.409 181.514 625.409 178.49C625.409 175.465 627.338 172.534 632.659 172.534H636.383V171.971C636.383 170.277 635.787 169.046 632.957 169.046C631.388 169.054 629.827 169.277 628.318 169.708C627.821 169.84 627.656 169.774 627.556 169.37L627.093 167.477C626.991 167.116 627.09 166.895 627.391 166.816C629.384 166.146 631.477 165.819 633.58 165.849C638.219 165.849 640.267 167.947 640.267 171.806V181.772C640.29 181.998 640.243 182.225 640.132 182.422C640.02 182.619 639.849 182.776 639.644 182.871ZM633.156 175.499C631.692 175.499 629.366 175.697 629.366 178.358C629.366 180.25 630.764 180.912 632.891 180.912C634.065 180.926 635.234 180.747 636.35 180.383V175.499H633.156Z" fill="#1B1464"/>
<path d="M657.775 179.787C658.272 179.549 658.404 179.655 658.537 180.019L659.372 181.945C659.431 182.005 659.474 182.08 659.496 182.162C659.519 182.244 659.52 182.33 659.501 182.413C659.481 182.496 659.44 182.572 659.383 182.635C659.326 182.697 659.253 182.745 659.173 182.772C657.346 183.68 655.32 184.115 653.282 184.036C648.325 184.036 645.601 181.011 645.601 175.068C645.601 169.45 648.729 165.803 653.653 165.803C655.409 165.769 657.146 166.169 658.709 166.968C659.107 167.199 659.206 167.365 658.974 167.795L658.139 169.781C657.973 170.145 657.841 170.244 657.311 170.012C656.201 169.556 655.018 169.307 653.818 169.278C650.757 169.278 649.557 172.037 649.557 175.062C649.557 178.086 650.459 180.641 653.885 180.641C655.225 180.618 656.548 180.328 657.775 179.787Z" fill="#1B1464"/>
<path d="M667.821 183.672H665.289C664.852 183.672 664.627 183.606 664.627 183.109V168.854C664.627 167.093 665.057 166.299 666.959 166.028C667.775 165.922 668.596 165.867 669.418 165.863C672.115 165.863 674.719 166.524 676.707 168.192C677.012 168.424 676.946 168.589 676.807 168.854L675.276 171.044C675.044 171.415 674.845 171.309 674.547 171.078C673.301 169.967 671.691 169.353 670.021 169.35C669.499 169.344 668.977 169.388 668.464 169.483V183.142C668.49 183.606 668.318 183.672 667.821 183.672Z" fill="#1B1464"/>
<path d="M687.284 184.036C681.929 184.036 679.331 180.912 679.331 174.969C679.331 169.152 682.645 165.829 687.416 165.829C692.718 165.829 695.468 169.251 695.468 174.87C695.435 180.747 692.704 184.036 687.284 184.036ZM687.449 169.086C684.586 169.086 683.221 171.581 683.221 174.87C683.221 178.556 684.255 180.78 687.317 180.78C690.378 180.78 691.472 178.027 691.472 174.969C691.472 171.799 690.643 169.086 687.449 169.086Z" fill="#1B1464"/>
<path d="M706.813 184.036C704.646 184.036 701.922 183.639 700.06 182.573C699.722 182.408 699.656 182.143 699.821 181.779L700.623 179.919C700.855 179.516 700.988 179.383 701.485 179.622C703.141 180.366 704.93 180.771 706.746 180.813C708.609 180.813 709.536 180.019 709.536 178.827C709.536 177.504 708.343 176.968 705.945 176.068C702.353 174.744 700.524 173.513 700.524 170.819C700.524 167.934 702.651 165.803 706.746 165.803C708.625 165.793 710.487 166.144 712.233 166.835C712.598 167.001 712.631 167.266 712.532 167.63L711.77 169.529C711.63 169.893 711.465 169.893 711.107 169.761C709.709 169.208 708.216 168.936 706.713 168.96C705.083 168.96 704.354 169.794 704.354 170.621C704.354 171.819 705.255 172.348 707.747 173.268C710.577 174.327 713.367 175.492 713.367 178.781C713.36 182.388 710.537 184.036 706.813 184.036Z" fill="#1B1464"/>
<path d="M724.506 184.036C722.346 184.036 719.616 183.639 717.754 182.573C717.422 182.408 717.356 182.143 717.522 181.779L718.323 179.919C718.555 179.516 718.688 179.383 719.185 179.622C720.839 180.366 722.626 180.771 724.44 180.813C726.302 180.813 727.236 180.019 727.236 178.827C727.236 177.504 726.037 176.968 723.645 176.068C720.053 174.744 718.217 173.513 718.217 170.819C718.217 167.934 720.351 165.803 724.44 165.803C726.318 165.793 728.181 166.144 729.927 166.835C730.298 167.001 730.331 167.266 730.232 167.63L729.463 169.529C729.331 169.893 729.165 169.893 728.8 169.761C727.403 169.208 725.91 168.936 724.407 168.96C722.777 168.96 722.048 169.794 722.048 170.621C722.048 171.819 722.942 172.348 725.441 173.268C728.264 174.327 731.06 175.492 731.06 178.781C731.06 182.388 728.244 184.036 724.506 184.036Z" fill="#1B1464"/>
<path d="M762.862 183.672H753.386C748.747 183.672 747.461 180.78 747.461 177.716V166.365C747.461 163.275 749.092 160.409 753.386 160.409H762.663C763.226 160.409 763.326 160.641 763.326 161.17V163.268C763.326 163.831 763.226 163.996 762.663 163.996H753.816C752.12 163.996 751.524 164.764 751.524 166.187V169.681H761.563C762.133 169.681 762.226 169.847 762.226 170.475V172.302C762.226 172.831 762.126 173.07 761.563 173.07H751.524V177.914C751.524 179.344 752.186 180.078 753.816 180.078H762.862C763.525 180.078 763.565 180.244 763.565 180.872V182.931C763.565 183.407 763.432 183.672 762.862 183.672Z" fill="#1B1464"/>
<path d="M778.369 184.036C771.682 184.036 768.356 179.919 768.356 172.077C768.356 164.506 772.544 160.052 778.468 160.052C785.155 160.052 788.614 164.572 788.614 171.964C788.614 179.655 785.234 184.036 778.369 184.036ZM778.534 163.705C774.439 163.705 772.511 167.424 772.511 171.911C772.511 177.06 773.909 180.383 778.475 180.383C783.041 180.383 784.439 176.412 784.439 172.077C784.439 167.742 783.326 163.705 778.534 163.705Z" fill="#1B1464"/>
<path d="M801.688 160.019C804.185 160.015 806.66 160.489 808.978 161.415C809.342 161.647 809.409 161.746 809.243 162.176L808.448 164.44C808.282 164.936 808.183 164.903 807.785 164.804C805.789 164.091 803.689 163.709 801.569 163.672C799.27 163.672 798.256 164.771 798.256 166.061C798.256 167.656 799.753 168.556 803.345 169.953C807.136 171.548 810.529 173.01 810.529 177.232C810.529 181.865 806.871 184.009 802.179 184.009C799.382 184.009 796.155 183.579 793.564 182.15C793.266 182.017 793.2 181.753 793.365 181.349L794.359 179.092C794.382 179.02 794.421 178.954 794.472 178.899C794.524 178.843 794.587 178.8 794.657 178.771C794.727 178.743 794.803 178.73 794.879 178.734C794.954 178.738 795.028 178.759 795.095 178.794C797.182 179.738 799.432 180.268 801.722 180.356C805.081 180.356 806.36 179.033 806.36 177.332C806.36 175.472 804.969 174.612 801.775 173.361C796.95 171.501 794.154 169.807 794.154 166.319C794.167 162.64 796.632 160.019 801.688 160.019Z" fill="#1B1464"/>
<path d="M831.025 179.152C831.688 178.887 831.827 179.119 831.96 179.483L832.821 181.375C833.126 182.037 833.02 182.143 832.655 182.375C830.396 183.698 827.698 184.036 825.306 184.036C818.554 184.036 815.094 180.151 815.094 172.309C815.094 164.969 819.316 160.085 825.571 160.085C827.753 160.005 829.918 160.486 831.86 161.481C832.225 161.647 832.357 161.812 832.092 162.441L831.158 164.367C830.992 164.804 830.893 164.969 830.396 164.738C828.922 164.137 827.348 163.82 825.757 163.804C821.33 163.804 819.335 167.855 819.335 172.309C819.335 176.763 820.833 180.283 825.923 180.283C827.68 180.235 829.412 179.851 831.025 179.152Z" fill="#1B1464"/>
</svg>
